<?xml version="1.0" encoding="UTF-8" standalone="no"?>
<svg
   xmlns:dc="http://purl.org/dc/elements/1.1/"
   xmlns:cc="http://creativecommons.org/ns#"
   xmlns:rdf="http://www.w3.org/1999/02/22-rdf-syntax-ns#"
   xmlns:svg="http://www.w3.org/2000/svg"
   xmlns="http://www.w3.org/2000/svg"
   xmlns:xlink="http://www.w3.org/1999/xlink"
   xmlns:sodipodi="http://sodipodi.sourceforge.net/DTD/sodipodi-0.dtd"
   xmlns:inkscape="http://www.inkscape.org/namespaces/inkscape"
   inkscape:export-ydpi="72.000008"
   inkscape:export-xdpi="72.000008"
   inkscape:export-filename="/home/jpc/documents/projects/sfizz/editor/resources/icon_white.png"
   inkscape:version="1.0 (4035a4fb49, 2020-05-01)"
   sodipodi:docname="sfizz_icon_white.svg"
   id="svg8"
   version="1.1"
   viewBox="0 0 128 128"
   height="128"
   width="128">
  <title
     id="title1469">sfizz logo</title>
  <defs
     id="defs2">
    <linearGradient
       inkscape:collect="always"
       id="linearGradient1445">
      <stop
         style="stop-color:#9b9b9b;stop-opacity:1"
         offset="0"
         id="stop1441" />
      <stop
         style="stop-color:#ffffff;stop-opacity:1"
         offset="1"
         id="stop1443" />
    </linearGradient>
    <inkscape:path-effect
       hide_knots="false"
       only_selected="false"
       apply_with_radius="true"
       apply_no_radius="true"
       use_knot_distance="true"
       flexible="false"
       chamfer_steps="2"
       radius="1"
       mode="C"
       method="auto"
       unit="mm"
       satellites_param="F,0,0,1,0,1,0,2 @ F,0,0,1,0,0,0,2 @ F,0,0,1,0,1,0,2 @ F,0,0,1,0,0,0,2 | F,0,0,1,0,0,0,2 @ F,0,0,1,0,0.47797039,0,2 @ F,0,0,1,0,0,0,2 @ F,0,0,1,0,0.51256137,0,2 | F,0,0,1,0,0,0,2 @ F,0,0,1,0,0.33778335,0,2 @ F,0,0,1,0,0,0,2 @ F,0,0,1,0,0.27944107,0,2 | F,0,0,1,0,0,0,2 @ F,0,0,1,0,0.25554572,0,2 @ F,0,0,1,0,0,0,2 @ F,0,0,1,0,0.29009315,0,2"
       lpeversion="1"
       is_visible="true"
       id="path-effect1150"
       effect="fillet_chamfer" />
    <inkscape:path-effect
       effect="fillet_chamfer"
       id="path-effect1136"
       is_visible="true"
       lpeversion="1"
       satellites_param="F,0,0,1,0,1,0,2 @ F,0,0,1,0,0,0,2 @ F,0,0,1,0,1,0,2 @ F,0,0,1,0,0,0,2 | F,0,0,1,0,0,0,2 @ F,0,0,1,0,0.47797039,0,2 @ F,0,0,1,0,0,0,2 @ F,0,0,1,0,0.51256137,0,2 | F,0,0,1,0,0,0,2 @ F,0,0,1,0,0.33778335,0,2 @ F,0,0,1,0,0,0,2 @ F,0,0,1,0,0.27944107,0,2 | F,0,0,1,0,0,0,2 @ F,0,0,1,0,0.25554572,0,2 @ F,0,0,1,0,0,0,2 @ F,0,0,1,0,0.29009315,0,2"
       unit="mm"
       method="auto"
       mode="C"
       radius="1"
       chamfer_steps="2"
       flexible="false"
       use_knot_distance="true"
       apply_no_radius="true"
       apply_with_radius="true"
       only_selected="false"
       hide_knots="false" />
    <inkscape:path-effect
       effect="fillet_chamfer"
       id="path-effect968"
       is_visible="true"
       lpeversion="1"
       satellites_param="F,0,0,1,0,1,0,2 @ F,0,0,1,0,0,0,2 @ F,0,0,1,0,1,0,2 @ F,0,0,1,0,0,0,2 | F,0,0,1,0,0,0,2 @ F,0,0,1,0,0.47797039,0,2 @ F,0,0,1,0,0,0,2 @ F,0,0,1,0,0.51256137,0,2 | F,0,0,1,0,0,0,2 @ F,0,0,1,0,0.33778335,0,2 @ F,0,0,1,0,0,0,2 @ F,0,0,1,0,0.27944107,0,2 | F,0,0,1,0,0,0,2 @ F,0,0,1,0,0.25554572,0,2 @ F,0,0,1,0,0,0,2 @ F,0,0,1,0,0.29009315,0,2"
       unit="mm"
       method="auto"
       mode="C"
       radius="1"
       chamfer_steps="2"
       flexible="false"
       use_knot_distance="true"
       apply_no_radius="true"
       apply_with_radius="true"
       only_selected="false"
       hide_knots="false" />
    <inkscape:path-effect
       hide_knots="false"
       only_selected="false"
       apply_with_radius="true"
       apply_no_radius="true"
       use_knot_distance="true"
       flexible="false"
       chamfer_steps="2"
       radius="1"
       mode="C"
       method="auto"
       unit="mm"
       satellites_param="F,0,0,1,0,1,0,2 @ F,0,0,1,0,0,0,2 @ F,0,0,1,0,1,0,2 @ F,0,0,1,0,0,0,2 | F,0,0,1,0,0,0,2 @ F,0,0,1,0,0.47797039,0,2 @ F,0,0,1,0,0,0,2 @ F,0,0,1,0,0.51256137,0,2 | F,0,0,1,0,0,0,2 @ F,0,0,1,0,0.33778335,0,2 @ F,0,0,1,0,0,0,2 @ F,0,0,1,0,0.27944107,0,2 | F,0,0,1,0,0,0,2 @ F,0,0,1,0,0.25554572,0,2 @ F,0,0,1,0,0,0,2 @ F,0,0,1,0,0.29009315,0,2"
       lpeversion="1"
       is_visible="true"
       id="path-effect921"
       effect="fillet_chamfer" />
    <inkscape:path-effect
       effect="fillet_chamfer"
       id="path-effect1183"
       is_visible="true"
       lpeversion="1"
       satellites_param="F,0,0,1,0,1,0,2 @ F,0,0,1,0,0,0,2 @ F,0,0,1,0,1,0,2 @ F,0,0,1,0,0,0,2 | F,0,0,1,0,0,0,2 @ F,0,0,1,0,0.47797039,0,2 @ F,0,0,1,0,0,0,2 @ F,0,0,1,0,0.51256137,0,2 | F,0,0,1,0,0,0,2 @ F,0,0,1,0,0.33778335,0,2 @ F,0,0,1,0,0,0,2 @ F,0,0,1,0,0.27944107,0,2 | F,0,0,1,0,0,0,2 @ F,0,0,1,0,0.25554572,0,2 @ F,0,0,1,0,0,0,2 @ F,0,0,1,0,0.29009315,0,2"
       unit="mm"
       method="auto"
       mode="C"
       radius="1"
       chamfer_steps="2"
       flexible="false"
       use_knot_distance="true"
       apply_no_radius="true"
       apply_with_radius="true"
       only_selected="false"
       hide_knots="false" />
    <inkscape:path-effect
       effect="powerstroke"
       id="path-effect1172"
       is_visible="true"
       lpeversion="1"
       offset_points="0.19099662,0.36320029 | 0.41721681,0.40988822 | 0.9095762,0.070646707"
       sort_points="true"
       interpolator_type="CubicBezierFit"
       interpolator_beta="0.2"
       start_linecap_type="zerowidth"
       linejoin_type="round"
       miter_limit="4"
       scale_width="1"
       end_linecap_type="zerowidth" />
    <clipPath
       clipPathUnits="userSpaceOnUse"
       id="clipPath917">
      <rect
         style="fill:#ffffff;stroke:none;stroke-width:2;stroke-linecap:round;paint-order:markers stroke fill"
         id="rect919"
         width="39.659527"
         height="25.252825"
         x="24.792475"
         y="68.872978" />
    </clipPath>
    <linearGradient
       gradientTransform="matrix(2.7140886,0,0,2.7140886,-1015.2846,-326.0696)"
       inkscape:collect="always"
       xlink:href="#linearGradient1445"
       id="linearGradient1447"
       x1="539.22601"
       y1="190.42654"
       x2="539.22601"
       y2="231.60674"
       gradientUnits="userSpaceOnUse" />
  </defs>
  <sodipodi:namedview
     width="128px"
     units="px"
     id="base"
     pagecolor="#4d4d4d"
     bordercolor="#666666"
     borderopacity="1.0"
     inkscape:pageopacity="0"
     inkscape:pageshadow="2"
     inkscape:zoom="3.9105942"
     inkscape:cx="11.230445"
     inkscape:cy="64.138925"
     inkscape:document-units="px"
     inkscape:current-layer="layer1"
     inkscape:document-rotation="0"
     showgrid="false"
     inkscape:snap-global="false"
     showguides="false"
     inkscape:window-width="1920"
     inkscape:window-height="1008"
     inkscape:window-x="0"
     inkscape:window-y="27"
     inkscape:window-maximized="1"
     inkscape:guide-bbox="true"
     inkscape:snap-bbox="true"
     inkscape:bbox-paths="true"
     inkscape:snap-bbox-edge-midpoints="true"
     inkscape:snap-center="true"
     inkscape:snap-bbox-midpoints="true"
     fit-margin-top="0"
     fit-margin-left="0"
     fit-margin-right="0"
     fit-margin-bottom="0">
    <sodipodi:guide
       position="-426.26068,186.35762"
       orientation="1,0"
       id="guide899" />
    <sodipodi:guide
       position="-325.51804,164.37052"
       orientation="0,-1"
       id="guide901" />
    <sodipodi:guide
       position="-510.78712,166.87427"
       orientation="1,0"
       id="guide1008" />
    <sodipodi:guide
       position="-325.56067,164.3767"
       orientation="1,0"
       id="guide1185" />
  </sodipodi:namedview>
  <metadata
     id="metadata5">
    <rdf:RDF>
      <cc:Work
         rdf:about="">
        <dc:format>image/svg+xml</dc:format>
        <dc:type
           rdf:resource="http://purl.org/dc/dcmitype/StillImage" />
        <dc:title>sfizz logo</dc:title>
        <dc:date>2020-05-16</dc:date>
        <dc:creator>
          <cc:Agent>
            <dc:title>Tobiasz 'unfa' Karoń</dc:title>
          </cc:Agent>
        </dc:creator>
        <dc:rights>
          <cc:Agent>
            <dc:title>CC-0</dc:title>
          </cc:Agent>
        </dc:rights>
        <cc:license
           rdf:resource="http://creativecommons.org/publicdomain/zero/1.0/" />
      </cc:Work>
      <cc:License
         rdf:about="http://creativecommons.org/publicdomain/zero/1.0/">
        <cc:permits
           rdf:resource="http://creativecommons.org/ns#Reproduction" />
        <cc:permits
           rdf:resource="http://creativecommons.org/ns#Distribution" />
        <cc:permits
           rdf:resource="http://creativecommons.org/ns#DerivativeWorks" />
      </cc:License>
    </rdf:RDF>
  </metadata>
  <g
     inkscape:label="Layer 1"
     inkscape:groupmode="layer"
     id="layer1"
     transform="translate(-469.72446,-181.87311)">
    <path
       sodipodi:nodetypes="scsscssccsscccccccccccccccccccccccccccccccssssscsccccccccccccsccccssccccccscccccccccccccccccccccccccccccccccccccccccccccccccccccsccsccccssscsccccccccsccscccccccccccsccsscccccccc"
       d="m 539.40898,229.8972 c -0.50832,0.0136 -0.91327,0.42977 -0.91307,0.93829 -3e-5,0.51819 0.42008,0.93832 0.93828,0.93832 0.51823,2e-5 0.93838,-0.4201 0.93835,-0.93832 0,-0.51824 -0.42012,-0.93831 -0.93835,-0.93829 -0.009,-1.1e-4 -0.0163,-1.1e-4 -0.0244,0 z m -13.77299,3.70834 c -0.83597,0.003 -1.53239,0.64146 -1.60734,1.47404 -3.78513,-0.0831 -2.71106,-0.90883 -7.57375,-0.90883 -5.11714,0 -3.59223,0.92428 -8.14875,0.92428 -4.55313,0 -3.03707,-0.9229 -8.1404,-0.92428 -4.3696,6.47901 -6.71096,14.11123 -6.72942,21.92457 h 0.11508 l 4.16276,-7.63826 4.16133,7.63826 h 0.30432 l 4.29182,-19.57248 4.29174,19.57248 h 0.20193 l 4.26375,-14.84451 4.26508,14.84451 h 0.62833 l 3.86541,-3.01267 3.86549,3.01267 h 0.7433 l 4.14876,-7.19646 4.1487,7.19646 h 0.76299 l 3.84716,-2.88222 3.84578,2.88222 h 1.36749 l 3.5442,-1.69709 3.54427,1.69709 h 1.06876 l 4.14444,-7.07584 4.14596,7.07584 h 1.58071 l 3.03224,-0.90042 3.03234,0.90042 h 1.37868 c -0.019,-7.81334 -2.35983,-15.44556 -6.7294,-21.92457 h -0.10531 c -5.11713,0 -3.59367,0.92428 -8.15019,0.92428 -4.55649,0 -3.03296,-0.92428 -8.15016,-0.92428 -5.1172,0 -3.59226,0.92428 -8.14884,0.92428 -4.55641,0 -3.03296,-0.92428 -8.15016,-0.92428 -3.71086,0 -3.94699,0.48319 -5.52458,0.75036 -0.14574,-0.76342 -0.81332,-1.3156 -1.59054,-1.31557 -0.003,0 -0.006,0 -0.009,0 z m -9.6411,3.29737 c 0.52852,-5.7e-4 0.95707,0.42802 0.9565,0.95653 -2e-4,0.52797 -0.42854,0.95571 -0.9565,0.95514 -0.52745,-1.6e-4 -0.95498,-0.42769 -0.95517,-0.95514 -5.7e-4,-0.52799 0.42717,-0.95636 0.95517,-0.95653 z m 39.05378,1.38992 c 1.2278,-1.2e-4 2.22319,0.99523 2.22312,2.22303 7e-5,1.22779 -0.99532,2.22313 -2.22312,2.22302 -1.22777,8e-5 -2.2231,-0.99526 -2.22303,-2.22302 -7e-5,-1.22778 0.99526,-2.22312 2.22303,-2.22303 z m -33.53338,4.4124 c 0.003,0 0.006,0 0.009,0 1.02994,1.3e-4 1.86463,0.83544 1.86397,1.8654 -1.3e-4,1.02939 -0.83457,1.86384 -1.86397,1.86398 -1.0294,-1.4e-4 -1.86385,-0.83459 -1.86398,-1.86398 -6.6e-4,-1.02667 0.8289,-1.86065 1.85556,-1.8654 z m 27.02844,4.44747 c 0.98921,-6e-5 1.79111,0.80185 1.79104,1.79104 7e-5,0.98921 -0.80183,1.79113 -1.79104,1.79107 -0.9892,8e-5 -1.79116,-0.80186 -1.79107,-1.79107 -9e-5,-0.98919 0.80187,-1.79113 1.79107,-1.79104 z m -55.09051,9.73926 c 0.37628,21.42233 17.84736,38.67517 39.35954,38.67517 21.5122,0 38.98328,-17.25284 39.35964,-38.67517 h -1.3521 l -3.04212,0.90324 -3.04209,-0.90324 h -1.56946 l -4.14735,7.07864 -4.14588,-7.07864 h -1.06172 l -3.54988,1.69989 -3.5498,-1.69989 h -1.35909 l -3.84857,2.88504 -3.84997,-2.88504 h -0.75874 l -4.15015,7.19925 -4.15014,-7.19925 h -0.73777 l -3.86964,3.01549 -3.86956,-3.01549 h -0.62275 l -4.26651,14.84734 -4.26519,-14.84734 h -0.20057 l -4.29174,19.5753 -4.29181,-19.5753 h -0.30295 l -4.1627,7.64105 -4.16421,-7.64105 z m 52.41301,6.75325 c 0.70536,2.1e-4 1.2769,0.57235 1.27635,1.27772 -2.1e-4,0.70481 -0.57153,1.2761 -1.27635,1.27632 -0.70534,5.4e-4 -1.27749,-0.57099 -1.27771,-1.27632 -5.4e-4,-0.70589 0.57183,-1.27826 1.27771,-1.27772 z M 523.04405,268.93 c 0.64309,-3.5e-4 1.16449,0.52105 1.16413,1.16413 -4.5e-4,0.64251 -0.52162,1.16303 -1.16413,1.16268 -0.64194,-4.5e-4 -1.1622,-0.52074 -1.16265,-1.16268 -3.6e-4,-0.6425 0.52015,-1.16366 1.16265,-1.16413 z m 26.013,3.18238 c 0.53142,-1.1e-4 0.96226,0.43072 0.96211,0.96214 1.5e-4,0.53142 -0.43069,0.96226 -0.96211,0.96215 -0.53141,1.1e-4 -0.96226,-0.43073 -0.96212,-0.96215 -1.4e-4,-0.53142 0.43071,-0.96225 0.96212,-0.96214 z m -8.45034,7.73784 c 0.53144,-1.4e-4 0.9623,0.43069 0.96217,0.96215 1.3e-4,0.53143 -0.43073,0.96227 -0.96217,0.96213 -0.5309,-6.2e-4 -0.9609,-0.43123 -0.96076,-0.96213 -1.4e-4,-0.53091 0.42986,-0.96152 0.96076,-0.96215 z m -19.87408,1.29175 c 0.0136,-2.6e-4 0.0244,-2.6e-4 0.038,0 0.52798,-5.8e-4 0.95635,0.42714 0.95654,0.9551 -1.9e-4,0.52798 -0.42856,0.95571 -0.95654,0.95515 -0.52742,-1.9e-4 -0.95495,-0.42772 -0.95513,-0.95515 -2.3e-4,-0.51296 0.40467,-0.93457 0.91723,-0.9551 z m 12.23438,9.3269 c 0.006,-5e-5 0.009,-5e-5 0.0136,0 0.37842,-4.6e-4 0.68552,0.30601 0.68584,0.68444 4.6e-4,0.37897 -0.30687,0.68632 -0.68584,0.68585 -0.37843,-3.3e-4 -0.68491,-0.30742 -0.68444,-0.68585 2.2e-4,-0.37245 0.29798,-0.67646 0.67035,-0.68444 z m 20.867,-98.62409 c -0.66713,0.0467 -1.29962,0.41408 -1.66062,1.03928 -0.5775,1.00034 -0.23585,2.27104 0.76442,2.84857 l 0.86954,0.5021 -10.47838,18.14893 c -18.84322,-4.78234 -38.56899,3.54169 -48.28961,20.37757 -11.9918,20.77021 -4.87532,47.32907 15.89506,59.32059 20.76988,11.99089 47.32773,4.87452 59.31922,-15.89501 9.71963,-16.83584 7.06586,-38.08021 -6.4966,-52.00775 l 10.47839,-18.14892 0.87101,0.50211 c 1.00031,0.57753 2.26963,0.23585 2.84713,-0.7644 0.57756,-1.0003 0.23748,-2.2696 -0.76298,-2.84716 l -22.16862,-12.79962 c -0.37507,-0.21658 -0.78763,-0.30427 -1.18796,-0.27629 z m 0.17533,1.76158 c 0.0401,0.009 0.0836,0.0244 0.12756,0.0505 l 22.16862,12.79819 c 0.17587,0.10152 0.21441,0.24943 0.11236,0.42639 -0.10232,0.17696 -0.24807,0.21713 -0.42497,0.11508 l -0.871,-0.50352 c -0.84818,-0.4897 -1.93276,-0.19895 -2.42222,0.64937 l -10.47841,18.15033 c -0.39583,0.68735 -0.28699,1.55395 0.26651,2.12206 6.27557,6.4441 10.37445,14.97095 11.48959,23.89656 1.11522,8.92557 -0.7609,18.19907 -5.2581,25.98913 -5.45226,9.44375 -14.75901,16.58606 -25.29206,19.40843 -10.53314,2.82231 -22.16266,1.28958 -31.6063,-4.16277 -9.44384,-5.45231 -16.58615,-14.75759 -19.40845,-25.29069 -2.82235,-10.53311 -1.29106,-22.16401 4.16134,-31.60774 4.49763,-7.79006 11.59069,-14.05137 19.87824,-17.54861 8.28756,-3.49728 17.72196,-4.21151 26.44074,-1.99863 0.76908,0.19568 1.57457,-0.1433 1.972,-0.83032 l 10.47839,-18.14891 c 0.48968,-0.84819 0.19893,-1.93273 -0.64938,-2.42219 l -0.86954,-0.5021 c -0.17695,-0.10233 -0.21658,-0.25052 -0.11507,-0.4264 0.0763,-0.1319 0.17913,-0.18727 0.30017,-0.16419 z"
       style="font-style:normal;font-variant:normal;font-weight:normal;font-stretch:normal;font-size:34.8154px;line-height:1.25;font-family:ABeeZee;-inkscape-font-specification:ABeeZee;letter-spacing:0px;word-spacing:0px;fill:url(#linearGradient1447);fill-opacity:1;stroke:none;stroke-width:0.718104"
       id="path1439" />
  </g>
</svg>
