<?xml version="1.0" encoding="UTF-8" standalone="no"?>
<svg
   xmlns:dc="http://purl.org/dc/elements/1.1/"
   xmlns:cc="http://creativecommons.org/ns#"
   xmlns:rdf="http://www.w3.org/1999/02/22-rdf-syntax-ns#"
   xmlns:svg="http://www.w3.org/2000/svg"
   xmlns="http://www.w3.org/2000/svg"
   xmlns:xlink="http://www.w3.org/1999/xlink"
   xmlns:sodipodi="http://sodipodi.sourceforge.net/DTD/sodipodi-0.dtd"
   xmlns:inkscape="http://www.inkscape.org/namespaces/inkscape"
   inkscape:version="1.0 (4035a4fb49, 2020-05-01)"
   sodipodi:docname="Sfizz logo final.svg"
   id="svg8"
   version="1.1"
   viewBox="0 0 127.48426 59.6413"
   height="59.6413mm"
   width="127.48426mm">
  <title
     id="title1469">sfizz logo</title>
  <defs
     id="defs2">
    <linearGradient
       id="linearGradient1445"
       inkscape:collect="always">
      <stop
         id="stop1441"
         offset="0"
         style="stop-color:#ffc800;stop-opacity:1" />
      <stop
         id="stop1443"
         offset="1"
         style="stop-color:#ff6400;stop-opacity:1" />
    </linearGradient>
    <inkscape:path-effect
       effect="fillet_chamfer"
       id="path-effect1150"
       is_visible="true"
       lpeversion="1"
       satellites_param="F,0,0,1,0,1,0,2 @ F,0,0,1,0,0,0,2 @ F,0,0,1,0,1,0,2 @ F,0,0,1,0,0,0,2 | F,0,0,1,0,0,0,2 @ F,0,0,1,0,0.47797039,0,2 @ F,0,0,1,0,0,0,2 @ F,0,0,1,0,0.51256137,0,2 | F,0,0,1,0,0,0,2 @ F,0,0,1,0,0.33778335,0,2 @ F,0,0,1,0,0,0,2 @ F,0,0,1,0,0.27944107,0,2 | F,0,0,1,0,0,0,2 @ F,0,0,1,0,0.25554572,0,2 @ F,0,0,1,0,0,0,2 @ F,0,0,1,0,0.29009315,0,2"
       unit="mm"
       method="auto"
       mode="C"
       radius="1"
       chamfer_steps="2"
       flexible="false"
       use_knot_distance="true"
       apply_no_radius="true"
       apply_with_radius="true"
       only_selected="false"
       hide_knots="false" />
    <inkscape:path-effect
       hide_knots="false"
       only_selected="false"
       apply_with_radius="true"
       apply_no_radius="true"
       use_knot_distance="true"
       flexible="false"
       chamfer_steps="2"
       radius="1"
       mode="C"
       method="auto"
       unit="mm"
       satellites_param="F,0,0,1,0,1,0,2 @ F,0,0,1,0,0,0,2 @ F,0,0,1,0,1,0,2 @ F,0,0,1,0,0,0,2 | F,0,0,1,0,0,0,2 @ F,0,0,1,0,0.47797039,0,2 @ F,0,0,1,0,0,0,2 @ F,0,0,1,0,0.51256137,0,2 | F,0,0,1,0,0,0,2 @ F,0,0,1,0,0.33778335,0,2 @ F,0,0,1,0,0,0,2 @ F,0,0,1,0,0.27944107,0,2 | F,0,0,1,0,0,0,2 @ F,0,0,1,0,0.25554572,0,2 @ F,0,0,1,0,0,0,2 @ F,0,0,1,0,0.29009315,0,2"
       lpeversion="1"
       is_visible="true"
       id="path-effect1136"
       effect="fillet_chamfer" />
    <inkscape:path-effect
       hide_knots="false"
       only_selected="false"
       apply_with_radius="true"
       apply_no_radius="true"
       use_knot_distance="true"
       flexible="false"
       chamfer_steps="2"
       radius="1"
       mode="C"
       method="auto"
       unit="mm"
       satellites_param="F,0,0,1,0,1,0,2 @ F,0,0,1,0,0,0,2 @ F,0,0,1,0,1,0,2 @ F,0,0,1,0,0,0,2 | F,0,0,1,0,0,0,2 @ F,0,0,1,0,0.47797039,0,2 @ F,0,0,1,0,0,0,2 @ F,0,0,1,0,0.51256137,0,2 | F,0,0,1,0,0,0,2 @ F,0,0,1,0,0.33778335,0,2 @ F,0,0,1,0,0,0,2 @ F,0,0,1,0,0.27944107,0,2 | F,0,0,1,0,0,0,2 @ F,0,0,1,0,0.25554572,0,2 @ F,0,0,1,0,0,0,2 @ F,0,0,1,0,0.29009315,0,2"
       lpeversion="1"
       is_visible="true"
       id="path-effect968"
       effect="fillet_chamfer" />
    <inkscape:path-effect
       effect="fillet_chamfer"
       id="path-effect921"
       is_visible="true"
       lpeversion="1"
       satellites_param="F,0,0,1,0,1,0,2 @ F,0,0,1,0,0,0,2 @ F,0,0,1,0,1,0,2 @ F,0,0,1,0,0,0,2 | F,0,0,1,0,0,0,2 @ F,0,0,1,0,0.47797039,0,2 @ F,0,0,1,0,0,0,2 @ F,0,0,1,0,0.51256137,0,2 | F,0,0,1,0,0,0,2 @ F,0,0,1,0,0.33778335,0,2 @ F,0,0,1,0,0,0,2 @ F,0,0,1,0,0.27944107,0,2 | F,0,0,1,0,0,0,2 @ F,0,0,1,0,0.25554572,0,2 @ F,0,0,1,0,0,0,2 @ F,0,0,1,0,0.29009315,0,2"
       unit="mm"
       method="auto"
       mode="C"
       radius="1"
       chamfer_steps="2"
       flexible="false"
       use_knot_distance="true"
       apply_no_radius="true"
       apply_with_radius="true"
       only_selected="false"
       hide_knots="false" />
    <inkscape:path-effect
       hide_knots="false"
       only_selected="false"
       apply_with_radius="true"
       apply_no_radius="true"
       use_knot_distance="true"
       flexible="false"
       chamfer_steps="2"
       radius="1"
       mode="C"
       method="auto"
       unit="mm"
       satellites_param="F,0,0,1,0,1,0,2 @ F,0,0,1,0,0,0,2 @ F,0,0,1,0,1,0,2 @ F,0,0,1,0,0,0,2 | F,0,0,1,0,0,0,2 @ F,0,0,1,0,0.47797039,0,2 @ F,0,0,1,0,0,0,2 @ F,0,0,1,0,0.51256137,0,2 | F,0,0,1,0,0,0,2 @ F,0,0,1,0,0.33778335,0,2 @ F,0,0,1,0,0,0,2 @ F,0,0,1,0,0.27944107,0,2 | F,0,0,1,0,0,0,2 @ F,0,0,1,0,0.25554572,0,2 @ F,0,0,1,0,0,0,2 @ F,0,0,1,0,0.29009315,0,2"
       lpeversion="1"
       is_visible="true"
       id="path-effect1183"
       effect="fillet_chamfer" />
    <inkscape:path-effect
       end_linecap_type="zerowidth"
       scale_width="1"
       miter_limit="4"
       linejoin_type="round"
       start_linecap_type="zerowidth"
       interpolator_beta="0.2"
       interpolator_type="CubicBezierFit"
       sort_points="true"
       offset_points="0.19099662,0.36320029 | 0.41721681,0.40988822 | 0.9095762,0.070646707"
       lpeversion="1"
       is_visible="true"
       id="path-effect1172"
       effect="powerstroke" />
    <clipPath
       id="clipPath917"
       clipPathUnits="userSpaceOnUse">
      <rect
         y="68.872978"
         x="24.792475"
         height="25.252825"
         width="39.659527"
         id="rect919"
         style="fill:#ffffff;stroke:none;stroke-width:2;stroke-linecap:round;paint-order:markers stroke fill" />
    </clipPath>
    <linearGradient
       gradientUnits="userSpaceOnUse"
       y2="231.60674"
       x2="539.22601"
       y1="190.42654"
       x1="539.22601"
       id="linearGradient1447"
       xlink:href="#linearGradient1445"
       inkscape:collect="always" />
  </defs>
  <sodipodi:namedview
     fit-margin-bottom="0"
     fit-margin-right="0"
     fit-margin-left="0"
     fit-margin-top="0"
     inkscape:snap-bbox-midpoints="true"
     inkscape:snap-center="true"
     inkscape:snap-bbox-edge-midpoints="true"
     inkscape:bbox-paths="true"
     inkscape:snap-bbox="true"
     inkscape:guide-bbox="true"
     inkscape:window-maximized="1"
     inkscape:window-y="0"
     inkscape:window-x="0"
     inkscape:window-height="1006"
     inkscape:window-width="1920"
     showguides="false"
     inkscape:snap-global="false"
     showgrid="false"
     inkscape:document-rotation="0"
     inkscape:current-layer="layer1"
     inkscape:document-units="mm"
     inkscape:cy="118.9882"
     inkscape:cx="232.8318"
     inkscape:zoom="1.9552971"
     inkscape:pageshadow="2"
     inkscape:pageopacity="0.0"
     borderopacity="1.0"
     bordercolor="#666666"
     pagecolor="#ffffff"
     id="base">
    <sodipodi:guide
       id="guide899"
       orientation="1,0"
       position="-426.26068,186.35762" />
    <sodipodi:guide
       id="guide901"
       orientation="0,-1"
       position="-325.51804,164.37052" />
    <sodipodi:guide
       id="guide1008"
       orientation="1,0"
       position="-510.78712,166.87427" />
    <sodipodi:guide
       id="guide1185"
       orientation="1,0"
       position="-325.56067,164.3767" />
  </sodipodi:namedview>
  <metadata
     id="metadata5">
    <rdf:RDF>
      <cc:Work
         rdf:about="">
        <dc:format>image/svg+xml</dc:format>
        <dc:type
           rdf:resource="http://purl.org/dc/dcmitype/StillImage" />
        <dc:title>sfizz logo</dc:title>
        <dc:date>2020-05-16</dc:date>
        <dc:creator>
          <cc:Agent>
            <dc:title>Tobiasz 'unfa' Karoń</dc:title>
          </cc:Agent>
        </dc:creator>
        <dc:rights>
          <cc:Agent>
            <dc:title>CC-0</dc:title>
          </cc:Agent>
        </dc:rights>
        <cc:license
           rdf:resource="http://creativecommons.org/publicdomain/zero/1.0/" />
      </cc:Work>
      <cc:License
         rdf:about="http://creativecommons.org/publicdomain/zero/1.0/">
        <cc:permits
           rdf:resource="http://creativecommons.org/ns#Reproduction" />
        <cc:permits
           rdf:resource="http://creativecommons.org/ns#Distribution" />
        <cc:permits
           rdf:resource="http://creativecommons.org/ns#DerivativeWorks" />
      </cc:License>
    </rdf:RDF>
  </metadata>
  <g
     transform="translate(-469.72446,-181.87311)"
     id="layer1"
     inkscape:groupmode="layer"
     inkscape:label="Layer 1">
    <path
       id="path1439"
       style="font-style:normal;font-variant:normal;font-weight:normal;font-stretch:normal;font-size:34.8154px;line-height:1.25;font-family:ABeeZee;-inkscape-font-specification:ABeeZee;letter-spacing:0px;word-spacing:0px;fill:url(#linearGradient1447);fill-opacity:1;stroke:none;stroke-width:0.264584"
       d="m 535.3613,205.60584 h 13.61282 v 2.40226 l -9.9572,12.91651 h 10.13128 v 2.78523 h -13.99579 v -2.47189 l 9.99202,-12.91651 h -9.78313 z m -16.4328,0 h 13.61282 v 2.40226 l -9.9572,12.91651 h 10.13128 v 2.78523 h -13.99579 v -2.47189 l 9.99202,-12.91651 h -9.78313 z m -6.38378,18.104 h -3.13338 l 3.1682,-18.104 h 3.13339 z m 2.33264,-21.20257 q -0.97483,0 -1.49707,-0.55705 -0.48741,-0.59186 -0.48741,-1.3578 0,-1.11409 0.69631,-1.77559 0.6963,-0.69631 1.74077,-0.69631 0.97483,0 1.46224,0.59187 0.52223,0.55704 0.52223,1.32298 0,1.11409 -0.6963,1.8104 -0.69631,0.6615 -1.74077,0.6615 z m -12.24537,3.76006 h 5.36157 l -0.48741,2.7156 h -5.36157 l -3.06376,17.23362 q -0.27852,1.53188 -0.80075,2.57634 -0.52223,1.07928 -1.25336,1.74077 -0.73112,0.66149 -1.67114,0.94002 -0.94001,0.31334 -2.01929,0.31334 -1.14891,0 -2.08892,-0.31334 -0.97483,-0.31334 -1.70596,-0.87039 l 1.25336,-2.57634 q 0.48741,0.48742 1.1489,0.76594 0.62668,0.27852 1.42744,0.27852 0.94001,0 1.6015,-0.66149 0.69631,-0.66149 0.97484,-2.12374 l 3.06375,-17.30325 h -2.78523 l 0.48741,-2.7156 h 2.78524 l 0.52223,-2.78523 q 0.59186,-3.20302 2.263,-4.56082 1.67114,-1.39262 4.28229,-1.39262 1.42743,0 2.64597,0.38297 1.21854,0.34816 2.19337,0.87039 l -1.21854,2.64597 q -0.80075,-0.41779 -1.67114,-0.76594 -0.83556,-0.34816 -1.98447,-0.34816 -1.28817,0 -2.19337,0.76594 -0.9052,0.73113 -1.18373,2.29782 z m -21.96217,13.36911 q 0.9052,0.80076 2.263,1.28817 1.39262,0.48742 2.95931,0.48742 1.94966,0 2.92449,-0.62668 1.00965,-0.66149 1.00965,-1.67114 0,-0.52223 -0.20889,-0.97483 -0.17408,-0.4526 -0.69631,-0.87039 -0.48742,-0.41778 -1.3578,-0.80075 -0.87039,-0.41778 -2.263,-0.9052 -2.57634,-0.87039 -3.8297,-2.05411 -1.25335,-1.21854 -1.25335,-3.34228 0,-1.04446 0.4526,-1.94966 0.48742,-0.9052 1.3578,-1.56669 0.9052,-0.69631 2.15856,-1.07928 1.28817,-0.38297 2.92449,-0.38297 1.77558,0 3.09857,0.38297 1.3578,0.34815 2.43708,0.9052 l -0.87039,2.57634 q -0.94001,-0.55705 -2.15855,-0.9052 -1.18373,-0.34815 -2.64597,-0.34815 -1.8104,0 -2.75042,0.73112 -0.94002,0.73112 -0.94002,1.60151 0,0.41778 0.13927,0.76594 0.17407,0.34815 0.59186,0.66149 0.41778,0.31334 1.11409,0.62668 0.69631,0.31333 1.74077,0.66149 1.70596,0.59186 2.88968,1.21854 1.18372,0.59186 1.91485,1.32298 0.73112,0.73113 1.04446,1.60151 0.31334,0.83557 0.31334,1.88003 0,1.21854 -0.52223,2.19337 -0.52224,0.97483 -1.46225,1.67114 -0.94002,0.66149 -2.29782,1.00965 -1.32298,0.38297 -2.95931,0.38297 -2.08892,0 -3.72524,-0.52223 -1.63633,-0.52223 -2.71561,-1.3578 z m 92.15362,-14.79169 a 0.34570683,0.34570683 0 0 0 -0.33642,0.34571 0.34570683,0.34570683 0 0 0 0.34571,0.34572 0.34570683,0.34570683 0 0 0 0.34573,-0.34572 0.34570683,0.34570683 0 0 0 -0.34573,-0.34571 0.34570683,0.34570683 0 0 0 -0.009,0 z m -5.07463,1.36633 a 0.59660355,0.59660355 0 0 0 -0.59222,0.54311 c -1.39462,-0.0306 -0.99888,-0.33486 -2.79053,-0.33486 -1.8854,0 -1.32355,0.34055 -3.00239,0.34055 -1.67759,0 -1.119,-0.34004 -2.99931,-0.34055 -1.60997,2.38718 -2.47264,5.19925 -2.47944,8.07806 h 0.0424 l 1.53376,-2.8143 1.53323,2.8143 h 0.11213 l 1.58131,-7.21144 1.58128,7.21144 h 0.0744 l 1.57097,-5.46943 1.57146,5.46943 h 0.23151 l 1.4242,-1.11001 1.42423,1.11001 h 0.27387 l 1.5286,-2.65152 1.52858,2.65152 h 0.28112 l 1.41748,-1.06195 1.41697,1.06195 h 0.50385 l 1.30585,-0.62529 1.30588,0.62529 h 0.39378 l 1.52701,-2.60708 1.52757,2.60708 h 0.58241 l 1.11722,-0.33176 1.11726,0.33176 h 0.50797 c -0.007,-2.87881 -0.86947,-5.69088 -2.47943,-8.07806 h -0.0388 c -1.8854,0 -1.32408,0.34055 -3.00292,0.34055 -1.67883,0 -1.11749,-0.34055 -3.00291,-0.34055 -1.88542,0 -1.32356,0.34055 -3.00242,0.34055 -1.6788,0 -1.11749,-0.34055 -3.00291,-0.34055 -1.36726,0 -1.45426,0.17803 -2.03552,0.27647 a 0.59660355,0.59660355 0 0 0 -0.58603,-0.48472 0.59660355,0.59660355 0 0 0 -0.003,0 z m -3.55224,1.21491 a 0.35204153,0.35204153 0 0 1 0.35242,0.35243 0.35204153,0.35204153 0 0 1 -0.35242,0.35192 0.35204153,0.35204153 0 0 1 -0.35193,-0.35192 0.35204153,0.35204153 0 0 1 0.35193,-0.35243 z m 14.38928,0.51211 a 0.81902026,0.81902026 0 0 1 0.8191,0.81907 0.81902026,0.81902026 0 0 1 -0.8191,0.81907 0.81902026,0.81902026 0 0 1 -0.81907,-0.81907 0.81902026,0.81902026 0 0 1 0.81907,-0.81907 z m -12.3553,1.62574 a 0.68686412,0.68686412 0 0 1 0.003,0 0.68686412,0.68686412 0 0 1 0.68678,0.6873 0.68686412,0.68686412 0 0 1 -0.68678,0.68678 0.68686412,0.68686412 0 0 1 -0.68678,-0.68678 0.68686412,0.68686412 0 0 1 0.68368,-0.6873 z m 9.95857,1.63866 a 0.65986072,0.65986072 0 0 1 0.6599,0.65991 0.65986072,0.65986072 0 0 1 -0.6599,0.65991 0.65986072,0.65986072 0 0 1 -0.65992,-0.65991 0.65986072,0.65986072 0 0 1 0.65992,-0.65991 z m -20.29798,3.58841 c 0.13864,7.89301 6.57582,14.24978 14.50194,14.24978 7.92612,0 14.3633,-6.35677 14.50197,-14.24978 h -0.49818 l -1.12086,0.3328 -1.12085,-0.3328 h -0.57827 l -1.52808,2.60811 -1.52754,-2.60811 h -0.39119 l -1.30794,0.62632 -1.30792,-0.62632 h -0.50075 l -1.418,1.06299 -1.41851,-1.06299 h -0.27956 l -1.52911,2.65255 -1.52911,-2.65255 h -0.27183 l -1.42576,1.11105 -1.42573,-1.11105 h -0.22945 l -1.57199,5.47047 -1.5715,-5.47047 h -0.0739 l -1.58128,7.21248 -1.58131,-7.21248 h -0.11162 l -1.53374,2.81533 -1.53429,-2.81533 z m 19.31146,2.48822 a 0.47041395,0.47041395 0 0 1 0.47027,0.47077 0.47041395,0.47041395 0 0 1 -0.47027,0.47026 0.47041395,0.47041395 0 0 1 -0.47077,-0.47026 0.47041395,0.47041395 0 0 1 0.47077,-0.47077 z m -8.40878,1.94717 a 0.42868953,0.42868953 0 0 1 0.42892,0.42892 0.42868953,0.42868953 0 0 1 -0.42892,0.42839 0.42868953,0.42868953 0 0 1 -0.42838,-0.42839 0.42868953,0.42868953 0 0 1 0.42838,-0.42892 z m 9.58443,1.17254 a 0.35441408,0.35441408 0 0 1 0.35449,0.3545 0.35441408,0.35441408 0 0 1 -0.35449,0.3545 0.35441408,0.35441408 0 0 1 -0.35449,-0.3545 0.35441408,0.35441408 0 0 1 0.35449,-0.3545 z m -3.11351,2.85099 a 0.35441408,0.35441408 0 0 1 0.35451,0.3545 0.35441408,0.35441408 0 0 1 -0.35451,0.3545 0.35441408,0.35441408 0 0 1 -0.35399,-0.3545 0.35441408,0.35441408 0 0 1 0.35399,-0.3545 z m -7.32256,0.47594 a 0.35204153,0.35204153 0 0 1 0.014,0 0.35204153,0.35204153 0 0 1 0.35243,0.35191 0.35204153,0.35204153 0 0 1 -0.35243,0.35192 0.35204153,0.35204153 0 0 1 -0.35192,-0.35192 0.35204153,0.35204153 0 0 1 0.33795,-0.35191 z m 4.50773,3.43648 a 0.2523885,0.2523885 0 0 1 0.005,0 0.2523885,0.2523885 0 0 1 0.2527,0.25218 0.2523885,0.2523885 0 0 1 -0.2527,0.2527 0.2523885,0.2523885 0 0 1 -0.25218,-0.2527 0.2523885,0.2523885 0 0 1 0.24699,-0.25218 z m 7.6884,-36.33783 c -0.2458,0.0172 -0.47884,0.15257 -0.61185,0.38292 -0.21278,0.36857 -0.0869,0.83676 0.28165,1.04955 l 0.32038,0.185 -3.86074,6.68693 a 16,16 0 0 0 -17.7922,7.50807 16,16 0 0 0 5.8565,21.85654 16,16 0 0 0 21.85604,-5.85648 16,16 0 0 0 -2.39366,-19.16214 l 3.86074,-6.68693 0.32092,0.185 c 0.36856,0.21279 0.83624,0.0869 1.04902,-0.28164 0.2128,-0.36856 0.0875,-0.83623 -0.28112,-1.04903 l -8.16798,-4.71599 c -0.13819,-0.0798 -0.2902,-0.11211 -0.4377,-0.1018 z m 0.0646,0.64905 c 0.0148,0.003 0.0308,0.009 0.047,0.0186 l 8.16798,4.71547 c 0.0648,0.0374 0.079,0.0919 0.0414,0.1571 -0.0377,0.0652 -0.0914,0.08 -0.15658,0.0424 l -0.32092,-0.18552 a 0.65325637,0.65325637 0 0 0 -0.89246,0.23926 l -3.86075,6.68745 a 0.65325637,0.65325637 0 0 0 0.0982,0.78187 c 2.31222,2.37431 3.82244,5.51601 4.23331,8.80463 0.4109,3.28861 -0.28035,6.70541 -1.93733,9.57564 -2.00888,3.47953 -5.43793,6.1111 -9.31881,7.15099 -3.88091,1.03988 -8.16578,0.47515 -11.64527,-1.53376 -3.47956,-2.00889 -6.11113,-5.4374 -7.151,-9.3183 -1.03989,-3.8809 -0.47569,-8.16628 1.53324,-11.6458 1.65714,-2.87023 4.27056,-5.1772 7.32409,-6.46575 3.05353,-1.28856 6.52962,-1.55172 9.74203,-0.73639 a 0.65325637,0.65325637 0 0 0 0.72658,-0.30593 l 3.86074,-6.68693 a 0.65325637,0.65325637 0 0 0 -0.23926,-0.89245 l -0.32038,-0.185 c -0.0652,-0.0377 -0.0798,-0.0923 -0.0424,-0.1571 0.0281,-0.0486 0.066,-0.069 0.1106,-0.0605 z" />
  </g>
</svg>
