<?xml version="1.0" standalone="no"?>
<!DOCTYPE svg PUBLIC "-//W3C//DTD SVG 20010904//EN"
 "http://www.w3.org/TR/2001/REC-SVG-20010904/DTD/svg10.dtd">
<svg version="1.0" xmlns="http://www.w3.org/2000/svg"
 width="512.000000pt" height="512.000000pt" viewBox="0 0 512.000000 512.000000"
 preserveAspectRatio="xMidYMid meet">
<metadata>
Created by potrace 1.11, written by Peter Selinger 2001-2013
</metadata>
<g transform="translate(0.000000,512.000000) scale(0.100000,-0.100000)"
fill="#000000" stroke="none">
<path d="M2750 4174 c-63 -140 -118 -254 -122 -254 -4 0 -8 -7 -8 -16 0 -20
-133 -324 -141 -324 -4 0 -69 117 -145 260 -95 181 -146 267 -165 281 -22 16
-30 17 -34 7 -2 -7 -54 -159 -114 -337 -61 -178 -112 -326 -115 -328 -2 -3
-67 19 -143 47 -340 128 -916 340 -919 338 -1 -2 62 -243 140 -536 l142 -532
-235 -121 c-339 -174 -711 -372 -707 -377 6 -5 114 -28 571 -123 214 -44 391
-81 392 -83 1 -1 -80 -94 -180 -207 -100 -113 -229 -263 -286 -334 -93 -114
-101 -127 -75 -121 16 4 225 61 465 127 240 65 438 119 440 119 3 0 -18 -188
-47 -418 -28 -229 -51 -418 -50 -419 4 -5 293 338 490 580 115 141 212 257
215 257 3 0 34 -93 69 -207 94 -311 215 -683 222 -683 6 0 149 469 182 593 7
26 16 47 20 47 4 0 8 12 8 28 1 37 105 395 116 399 5 2 59 -104 119 -234 116
-254 265 -562 265 -550 0 4 18 92 41 195 22 103 65 306 95 451 30 146 57 267
60 270 3 4 43 -14 87 -38 330 -177 830 -441 832 -439 1 2 -65 165 -146 363
-82 198 -148 363 -149 368 0 4 7 7 16 7 21 0 814 169 838 178 14 6 -36 35
-205 123 -123 64 -288 147 -366 184 -79 38 -143 71 -143 74 0 4 155 159 345
345 190 186 344 341 341 343 -4 5 -110 -3 -726 -51 -91 -8 -166 -13 -167 -12
-1 0 -7 179 -13 396 -7 217 -14 397 -16 399 -3 4 -243 -161 -532 -367 -141
-101 -206 -142 -211 -133 -4 7 -40 130 -80 274 -91 331 -106 377 -134 414
l-23 31 -114 -254z m227 -185 c51 -184 95 -340 98 -347 3 -10 28 3 82 42 224
159 622 436 635 441 17 7 21 -59 34 -529 l7 -228 61 6 c64 6 537 42 691 52
l90 6 -335 -330 -335 -330 30 -12 c58 -22 655 -323 655 -329 0 -6 -506 -117
-721 -158 l-85 -16 10 -41 c6 -23 14 -43 18 -46 9 -7 246 -584 242 -589 -2 -2
-45 19 -96 47 -51 27 -142 76 -203 108 -60 32 -213 113 -339 181 -126 67 -230
122 -231 120 -1 -1 -27 -127 -58 -279 -88 -427 -119 -568 -127 -568 -8 0 -99
189 -255 530 -60 129 -110 237 -112 240 -8 9 -20 -24 -58 -158 -21 -75 -42
-138 -47 -140 -4 -2 -8 -15 -8 -29 0 -20 -49 -195 -197 -705 -3 -10 -9 -18
-13 -18 -10 0 -53 129 -174 524 -53 170 -97 310 -98 312 -2 1 -96 -110 -208
-248 -266 -327 -439 -532 -452 -537 -7 -2 -9 9 -5 30 16 92 88 712 83 717 -4
3 -198 -47 -432 -112 -235 -64 -428 -115 -430 -114 -5 5 153 192 344 408 100
112 182 207 182 210 0 3 -96 24 -213 48 -434 88 -707 147 -707 152 0 6 268
149 603 320 142 73 260 138 263 144 2 6 -57 236 -130 511 -74 275 -131 501
-126 503 8 3 153 -49 661 -239 191 -71 350 -129 355 -129 5 0 58 146 119 325
60 179 114 325 120 325 5 0 73 -121 150 -268 174 -333 167 -328 240 -152 28
66 53 120 58 120 4 0 7 7 7 15 0 26 244 555 254 552 6 -2 52 -154 103 -338z"/>
<path d="M2479 3291 c-130 -42 -240 -157 -316 -331 l-32 -75 -93 -5 -93 -5 0
-35 0 -35 78 -3 c42 -2 77 -5 77 -7 0 -17 -177 -574 -201 -630 -54 -131 -110
-197 -186 -220 -26 -7 -29 2 -8 29 8 11 15 39 15 62 0 53 -33 84 -90 84 -72 0
-118 -67 -100 -145 17 -77 73 -109 175 -103 136 9 252 86 353 235 80 119 197
376 282 626 l24 67 88 0 c87 0 89 1 99 27 17 46 7 53 -81 53 -44 0 -80 4 -80
9 0 5 20 68 46 141 61 179 89 220 152 220 l33 0 -35 -44 c-29 -34 -36 -52 -36
-85 0 -36 4 -44 33 -61 43 -26 107 -26 140 1 60 46 56 156 -6 203 -63 47 -145
57 -238 27z"/>
<path d="M1600 2879 c-79 -36 -120 -88 -120 -153 0 -54 14 -79 76 -137 139
-130 154 -146 154 -171 0 -65 -81 -106 -146 -74 -36 17 -37 18 -34 83 4 112
-142 129 -156 18 -8 -59 21 -104 88 -139 48 -24 68 -28 139 -29 171 -1 269 67
269 186 0 26 -6 60 -14 76 -8 15 -57 62 -109 104 -52 43 -98 84 -101 93 -11
30 -6 61 15 88 18 23 28 27 63 24 l41 -3 21 -65 c23 -71 49 -94 94 -83 42 10
60 33 60 76 0 49 -46 99 -105 116 -67 18 -184 13 -235 -10z"/>
<path d="M3332 2866 c-35 -40 -82 -126 -82 -151 0 -32 30 -27 77 14 l47 42 95
-7 c53 -4 97 -7 98 -8 1 -1 -86 -73 -193 -160 -207 -170 -264 -225 -264 -255
0 -29 41 -34 92 -11 58 26 79 25 178 -10 89 -31 126 -32 181 -4 67 34 120 135
101 192 -7 22 -15 27 -43 27 -33 0 -34 -1 -37 -42 -4 -61 -16 -66 -97 -42 -44
14 -83 19 -108 16 -22 -3 -36 -2 -31 2 5 5 72 62 149 129 77 66 171 149 208
184 63 57 68 66 62 91 -7 25 -11 28 -39 24 -17 -2 -52 -10 -78 -18 -40 -11
-58 -11 -105 0 -32 7 -85 15 -119 18 -59 5 -61 4 -92 -31z"/>
<path d="M2430 2465 l0 -253 -22 -6 c-13 -3 -42 -6 -64 -6 -75 0 -116 -59 -84
-120 15 -29 85 -45 132 -31 64 19 68 38 68 291 0 206 1 221 18 216 9 -3 35 -8
57 -11 22 -4 48 -9 58 -12 15 -4 17 4 17 71 l0 75 -57 11 c-32 6 -73 15 -90
20 l-33 8 0 -253z"/>
<path d="M2762 2676 c-35 -40 -82 -126 -82 -151 0 -32 30 -27 77 14 l47 42 95
-7 c53 -4 97 -7 98 -8 1 -1 -86 -73 -193 -160 -207 -170 -264 -225 -264 -255
0 -29 41 -34 92 -11 58 26 79 25 178 -10 89 -31 126 -32 181 -4 67 34 120 135
101 192 -7 22 -15 27 -43 27 -33 0 -34 -1 -37 -42 -4 -61 -16 -66 -97 -42 -44
14 -83 19 -108 16 -22 -3 -36 -2 -31 2 5 5 72 62 149 129 77 66 171 149 208
184 63 57 68 66 62 91 -7 25 -11 28 -39 24 -17 -2 -52 -10 -78 -18 -40 -11
-58 -11 -105 0 -32 7 -85 15 -119 18 -59 5 -61 4 -92 -31z"/>
</g>
</svg>
